PathFileType	3	(X/Y/Z)	D:\VICON_DB\Goncalves\Pilot01\09-03-2026\bw_sq_02.trc
DataRate	CameraRate	NumFrames	NumMarkers	Units	OrigDataRate	OrigDataStartFrame	OrigNumFrames
200.0	200.0	9	34	mm	200.0	1	670	
Frame#	Time	LASI			RASI			LPSI			RPSI			LTHI			LTHAP			LTHAD			LKNE			LKNM			LTIB			LTIAP			LTIAD			LANK			LMED			LHEE			LTOE			LFMH			LSMH			LVMH			RTHI			RTHAP			RTHAD			RKNE			RKNM			RTIB			RTIAP			RTIAD			RANK			RMED			RHEE			RTOE			RFMH			RSMH			RVMH			
		X1	Y1	Z1	X2	Y2	Z2	X3	Y3	Z3	X4	Y4	Z4	X5	Y5	Z5	X6	Y6	Z6	X7	Y7	Z7	X8	Y8	Z8	X9	Y9	Z9	X10	Y10	Z10	X11	Y11	Z11	X12	Y12	Z12	X13	Y13	Z13	X14	Y14	Z14	X15	Y15	Z15	X16	Y16	Z16	X17	Y17	Z17	X18	Y18	Z18	X19	Y19	Z19	X20	Y20	Z20	X21	Y21	Z21	X22	Y22	Z22	X23	Y23	Z23	X24	Y24	Z24	X25	Y25	Z25	X26	Y26	Z26	X27	Y27	Z27	X28	Y28	Z28	X29	Y29	Z29	X30	Y30	Z30	X31	Y31	Z31	X32	Y32	Z32	X33	Y33	Z33	X34	Y34	Z34	
1	0	120.85383	906.19763	-1069.3351	119.47508	904.42041	-1325.6034				320.24774	952.36102	-1218.9329	124.48127	698.07434	-1030.4689	141.45972	772.11029	-1017.0997	169.96712	633.30939	-1010.3407	218.74182	476.3945	-1025.2286				261.48416	281.81708	-1006.0338	201.03799	355.98306	-1061.271	221.26814	253.29393	-1034.2465	286.02298	70.316093	-1029.8242				329.07541	63.315929	-1082.9137	205.76959	71.466743	-1049.6293	149.08153	44.907993	-1076.4232				163.51749	25.212307	-995.44562	164.17854	626.05396	-1373.3464	124.30875	751.9726	-1354.0336	107.63593	659.26581	-1332.7197	214.73134	490.94656	-1360.564				241.42368	295.47684	-1378.8716	200.85741	344.33276	-1324.0386	209.86504	262.86612	-1326.3054	294.32434	62.415722	-1352.1481				330.85226	59.290352	-1310.9722	202.16548	68.548424	-1334.9874	152.31163	48.91573	-1309.9629				165.06659	19.670315	-1383.7517
2	0.005	120.94767	906.20532	-1069.3311	119.5768	904.43561	-1325.5948				320.0766	951.64868	-1219.5387	124.46564	698.11908	-1030.4729	141.50223	772.13025	-1017.1107	169.88918	633.32428	-1010.322	218.54816	476.3718	-1025.2266				261.32901	281.79437	-1006.0292	200.84827	355.93954	-1061.2791	221.13101	253.25269	-1034.2509	285.99039	70.325188	-1029.8199				329.05368	63.332767	-1082.91	205.74806	71.461128	-1049.6376	149.08058	44.89127	-1076.4143				163.51042	25.208073	-995.4425	164.15701	626.08313	-1373.3457	124.3576	752.01117	-1354.0326	107.59932	659.32629	-1332.761	214.64888	490.94461	-1360.5349				241.3559	295.4613	-1378.8447	200.76064	344.30203	-1324.022	209.78479	262.84467	-1326.2911	294.31824	62.407879	-1352.1248				330.84558	59.295002	-1310.9583	202.16243	68.548729	-1334.9795	152.30438	48.916767	-1309.965				165.06828	19.661556	-1383.7448
3	0.01	121.05912	906.21558	-1069.3254	119.69661	904.45306	-1325.5853				319.92969	950.98505	-1220.1331	124.451	698.17157	-1030.4767	141.55611	772.15259	-1017.1251	169.80293	633.34216	-1010.2998	218.32787	476.34628	-1025.224				261.15317	281.76883	-1006.0235	200.63191	355.89026	-1061.2871	220.97516	253.20587	-1034.2552	285.95367	70.334953	-1029.8154				329.02859	63.352367	-1082.9059	205.72337	71.455223	-1049.6471	149.07861	44.873516	-1076.4054				163.50253	25.203777	-995.43915	164.13515	626.11554	-1373.3441	124.41666	752.05609	-1354.0308	107.55976	659.39465	-1332.8068	214.55606	490.94211	-1360.5012				241.27797	295.4433	-1378.8146	200.65074	344.26642	-1324.0026	209.69531	262.8194	-1326.2747	294.31137	62.400043	-1352.0994				330.83789	59.300655	-1310.9425	202.15863	68.54969	-1334.9707	152.29593	48.918648	-1309.9677				165.06981	19.653254	-1383.7375
4	0.015	121.18832	906.22864	-1069.318	119.8344	904.47241	-1325.575				319.81723	950.40228	-1220.6932	124.43846	698.23138	-1030.4802	141.62234	772.17737	-1017.1431	169.71019	633.36316	-1010.2743	218.0835	476.31845	-1025.2205				260.95889	281.74088	-1006.0164	200.39134	355.83572	-1061.2946	220.80247	253.1541	-1034.2594	285.9136	70.345055	-1029.8108				329.00049	63.37466	-1082.9017	205.69582	71.449287	-1049.6584	149.07527	44.855419	-1076.3969				163.49393	25.199652	-995.43567	164.11398	626.15057	-1373.3413	124.48632	752.10681	-1354.0272	107.51842	659.47021	-1332.856	214.45428	490.93906	-1360.4628				241.19044	295.42297	-1378.7812	200.52901	344.22617	-1323.9805	209.59805	262.7905	-1326.2559	294.30392	62.392689	-1352.0726				330.82907	59.30732	-1310.9254	202.1541	68.551483	-1334.9612	152.28635	48.921528	-1309.9705				165.07095	19.645958	-1383.7306
5	0.02	121.33505	906.24493	-1069.308	119.98956	904.49341	-1325.5641				319.74567	949.92041	-1221.2028	124.42923	698.29828	-1030.4832	141.70171	772.20386	-1017.1649	169.61308	633.38721	-1010.2454	217.81863	476.2887	-1025.2162				260.74918	281.711	-1006.0078	200.12976	355.77682	-1061.301	220.61554	253.09816	-1034.2628	285.87152	70.354988	-1029.8057				328.9697	63.399426	-1082.8972	205.66599	71.443596	-1049.671	149.07024	44.837715	-1076.3889				163.48483	25.195944	-995.43207	164.09471	626.18726	-1373.3376	124.56689	752.16296	-1354.0222	107.47663	659.55157	-1332.9077	214.34528	490.93542	-1360.4204				241.09412	295.40045	-1378.7457	200.39728	344.18173	-1323.9561	209.49477	262.75818	-1326.2352	294.29602	62.386314	-1352.0452				330.81946	59.314919	-1310.9069	202.14885	68.55423	-1334.9509	152.2757	48.925537	-1309.9739				165.07169	19.640009	-1383.7239
6	0.025	121.49872	906.26428	-1069.2953	120.1612	904.51562	-1325.5532				319.71802	949.54828	-1221.6522	124.42451	698.37128	-1030.4846	141.79463	772.23163	-1017.1899	169.51405	633.41412	-1010.2134	217.53738	476.25772	-1025.2111				260.52747	281.67975	-1005.998	199.85098	355.71432	-1061.3054	220.41734	253.03894	-1034.2651	285.82861	70.364273	-1029.8002				328.93658	63.426392	-1082.8929	205.6347	71.438385	-1049.6846	149.06332	44.82103	-1076.3827				163.47536	25.19289	-995.42853	164.07834	626.22504	-1373.3329	124.65853	752.22357	-1354.0151	107.43568	659.63776	-1332.9609	214.23106	490.93124	-1360.3743				240.98987	295.37601	-1378.7089	200.25758	344.13394	-1323.9292	209.38733	262.72269	-1326.212	294.28784	62.381268	-1352.0183				330.80908	59.323296	-1310.8879	202.14302	68.558014	-1334.9401	152.2641	48.930737	-1309.9777				165.07202	19.635496	-1383.7173
7	0.03	121.67854	906.2868	-1069.2797	120.34809	904.53851	-1325.5426				319.73505	949.28674	-1222.0383	124.42547	698.44965	-1030.4846	141.90109	772.26044	-1017.2177	169.41565	633.4436	-1010.1786	217.24429	476.22601	-1025.2051				260.29742	281.64767	-1005.9872	199.55908	355.64911	-1061.3073	220.21106	252.97728	-1034.2662	285.7861	70.372528	-1029.7943				328.90167	63.455166	-1082.8888	205.60291	71.433952	-1049.6985	149.05453	44.805748	-1076.3779				163.46577	25.190657	-995.42517	164.06586	626.26324	-1373.3276	124.76125	752.28778	-1354.0056	107.39692	659.72729	-1333.0154	214.11378	490.92651	-1360.3247				240.8788	295.34982	-1378.6711	200.11212	344.08371	-1323.9004	209.27766	262.68448	-1326.1871	294.27942	62.377663	-1351.9923				330.79825	59.332226	-1310.8685	202.13672	68.562798	-1334.929	152.25179	48.93708	-1309.9817				165.07205	19.632433	-1383.7111
8	0.035	121.87362	906.31219	-1069.2606	120.54879	904.56128	-1325.5331				319.7959	949.13055	-1222.3606	124.43321	698.53235	-1030.4828	142.02065	772.28986	-1017.2469	169.32031	633.4751	-1010.141	216.94391	476.19406	-1025.1981				260.06268	281.61526	-1005.9753	199.25815	355.58215	-1061.306	219.99994	252.91408	-1034.2656	285.74478	70.379585	-1029.7882				328.86554	63.485302	-1082.8855	205.57166	71.430496	-1049.712	149.04417	44.792049	-1076.3749				163.45622	25.189329	-995.42206	164.05832	626.30084	-1373.322	124.87492	752.35461	-1353.993	107.36169	659.81897	-1333.0698	213.99568	490.92126	-1360.2727				240.76236	295.32217	-1378.6335	199.96307	344.0321	-1323.8698	209.16751	262.64392	-1326.1599	294.27109	62.375423	-1351.9679				330.78717	59.341408	-1310.8491	202.13023	68.568428	-1334.9178	152.23901	48.944378	-1309.9861				165.07184	19.630802	-1383.7052
9	0.04	122.08286	906.3399	-1069.2377	120.7617	904.58319	-1325.525				319.8985	949.07037	-1222.6222	124.44881	698.61798	-1030.4783	142.15239	772.32007	-1017.2766	169.23045	633.50818	-1010.1008	216.64066	476.16232	-1025.1901				259.82684	281.58289	-1005.9628	198.95219	355.51404	-1061.3011	219.78712	252.85002	-1034.2634	285.70538	70.38549	-1029.7823				328.82864	63.516312	-1082.8832	205.54182	71.428108	-1049.7251	149.03249	44.779964	-1076.3737				163.44688	25.188873	-995.41937	164.05681	626.33673	-1373.3164	124.99932	752.42303	-1353.9778	107.33128	659.91138	-1333.1238	213.87895	490.91537	-1360.2184				240.64207	295.29333	-1378.5962	199.81255	343.98068	-1323.8375	209.05859	262.60159	-1326.1309	294.26279	62.374352	-1351.9453				330.77625	59.350494	-1310.8301	202.12372	68.574692	-1334.907	152.2262	48.952297	-1309.9905				165.07141	19.630569	-1383.6997
